<svg xmlns="http://www.w3.org/2000/svg" viewBox="0 0 1400 900" preserveAspectRatio="xMidYMid slice">
  <defs>
    <linearGradient id="bg" x1="0" y1="0" x2="1" y2="1">
      <stop stop-color="#07111d"/>
      <stop offset=".48" stop-color="#0b1c2c"/>
      <stop offset="1" stop-color="#03070d"/>
    </linearGradient>
    <linearGradient id="accent" x1="0" y1="0" x2="1" y2="0">
      <stop stop-color="#5addff"/>
      <stop offset=".55" stop-color="#35e1c2"/>
      <stop offset="1" stop-color="#f4ad55"/>
    </linearGradient>
  </defs>
  <rect width="1400" height="900" fill="url(#bg)"/>
  <g opacity=".16" stroke="#7eddff">
    <path d="M0 160 H1400M0 280 H1400M0 400 H1400M0 520 H1400M0 640 H1400"/>
    <path d="M160 0 V900M320 0 V900M480 0 V900M640 0 V900M800 0 V900M960 0 V900M1120 0 V900M1280 0 V900"/>
  </g>
  <rect x="105" y="110" width="1190" height="680" rx="34" fill="#07111d" stroke="#7eddff" stroke-opacity=".28"/>
  <rect x="150" y="160" width="500" height="250" rx="22" fill="#0b1d2e" stroke="#7eddff" stroke-opacity=".24"/>
  <rect x="690" y="160" width="560" height="250" rx="22" fill="#0b1d2e" stroke="#7eddff" stroke-opacity=".24"/>
  <rect x="150" y="452" width="1100" height="290" rx="22" fill="#0b1d2e" stroke="#7eddff" stroke-opacity=".24"/>
  <path d="M210 610 C340 500 455 680 580 575 C700 475 840 600 965 515 C1080 440 1180 500 1235 455" fill="none" stroke="url(#accent)" stroke-width="8" stroke-linecap="round"/>
  <g fill="#eaf8ff">
    <text x="188" y="215" font-family="Arial, sans-serif" font-size="34" font-weight="700">Incident Command</text>
    <text x="728" y="215" font-family="Arial, sans-serif" font-size="34" font-weight="700">Route Intelligence</text>
    <text x="188" y="512" font-family="Arial, sans-serif" font-size="30" font-weight="700">Fleet Recovery Timeline</text>
  </g>
  <g opacity=".75">
    <circle cx="280" cy="315" r="38" fill="#5addff"/>
    <circle cx="410" cy="315" r="38" fill="#35e1c2"/>
    <circle cx="540" cy="315" r="38" fill="#f4ad55"/>
    <path d="M280 315 H540" stroke="#7eddff" stroke-width="4"/>
  </g>
  <g fill="#10283a" stroke="#7eddff" stroke-opacity=".32">
    <rect x="730" y="275" width="150" height="82" rx="18"/>
    <rect x="915" y="255" width="150" height="122" rx="18"/>
    <rect x="1100" y="285" width="110" height="72" rx="18"/>
  </g>
</svg>
