<svg xmlns="http://www.w3.org/2000/svg" viewBox="0 0 1800 1000" preserveAspectRatio="xMidYMid slice">
  <defs>
    <linearGradient id="sky" x1="0" y1="0" x2="0" y2="1">
      <stop offset="0" stop-color="#02050b"/>
      <stop offset=".52" stop-color="#06101a"/>
      <stop offset="1" stop-color="#020408"/>
    </linearGradient>
    <radialGradient id="glow" cx=".52" cy=".38" r=".62">
      <stop offset="0" stop-color="#56d8ff" stop-opacity=".34"/>
      <stop offset=".45" stop-color="#087fa6" stop-opacity=".13"/>
      <stop offset="1" stop-color="#000" stop-opacity="0"/>
    </radialGradient>
    <linearGradient id="road" x1="0" y1="0" x2="0" y2="1">
      <stop offset="0" stop-color="#111820"/>
      <stop offset=".56" stop-color="#070a0e"/>
      <stop offset="1" stop-color="#010204"/>
    </linearGradient>
    <filter id="blur"><feGaussianBlur stdDeviation="8"/></filter>
  </defs>
  <rect width="1800" height="1000" fill="url(#sky)"/>
  <rect width="1800" height="1000" fill="url(#glow)"/>
  <path d="M0 575 C330 500 560 520 830 545 C1130 575 1395 520 1800 470 L1800 1000 L0 1000 Z" fill="#04080d"/>
  <path d="M800 530 L1010 530 L1530 1000 L240 1000 Z" fill="url(#road)"/>
  <path d="M895 548 L920 548 L960 1000 L800 1000 Z" fill="#f4f7fb" opacity=".22"/>
  <path d="M930 548 L955 548 L1120 1000 L980 1000 Z" fill="#f4f7fb" opacity=".16"/>
  <path d="M880 610 L934 610 M852 705 L950 705 M806 850 L982 850" stroke="#f6a94a" stroke-width="8" opacity=".68" stroke-linecap="round"/>
  <path d="M812 530 L420 1000 M997 530 L1495 1000" stroke="#5addff" stroke-width="2" opacity=".24"/>
  <g opacity=".72" filter="url(#blur)">
    <circle cx="650" cy="505" r="18" fill="#5addff"/>
    <circle cx="740" cy="512" r="10" fill="#f6a94a"/>
    <circle cx="1135" cy="498" r="14" fill="#5addff"/>
    <circle cx="1240" cy="488" r="9" fill="#f6a94a"/>
  </g>
  <g opacity=".22" stroke="#5addff" stroke-width="1">
    <path d="M240 260 H1560"/>
    <path d="M300 340 H1480"/>
    <path d="M360 420 H1400"/>
    <path d="M520 210 V520"/>
    <path d="M900 180 V560"/>
    <path d="M1280 210 V520"/>
  </g>
</svg>
